<svg width="14" height="14" viewBox="0 0 14 14" fill="none" xmlns="http://www.w3.org/2000/svg">
<g clip-path="url(#clip0_429_3944)">
<path d="M6.41669 2.33338H2.33335C2.02393 2.33338 1.72719 2.4563 1.5084 2.67509C1.2896 2.89389 1.16669 3.19063 1.16669 3.50005V11.6667C1.16669 11.9761 1.2896 12.2729 1.5084 12.4917C1.72719 12.7105 2.02393 12.8334 2.33335 12.8334H10.5C10.8094 12.8334 11.1062 12.7105 11.325 12.4917C11.5438 12.2729 11.6667 11.9761 11.6667 11.6667V7.58338M10.7917 1.45838C11.0238 1.22632 11.3385 1.09595 11.6667 1.09595C11.9949 1.09595 12.3096 1.22632 12.5417 1.45838C12.7738 1.69045 12.9041 2.0052 12.9041 2.33338C12.9041 2.66157 12.7738 2.97632 12.5417 3.20838L7.00002 8.75005L4.66669 9.33338L5.25002 7.00005L10.7917 1.45838Z" stroke="#F5F5F5" stroke-linecap="round" stroke-linejoin="round"/>
</g>
<defs>
<clipPath id="clip0_429_3944">
<rect width="14" height="14" fill="white"/>
</clipPath>
</defs>
</svg>
